<?xml version="1.0" encoding="UTF-8"?>
<svg xmlns="http://www.w3.org/2000/svg" width="512" height="512" viewBox="0 0 512 512" role="img" aria-label="eslint-plugin-runtime-cleanup logo">
  <title>eslint-plugin-runtime-cleanup logo</title>
  <defs>
    <linearGradient id="runtimeCleanupShell" x1="72" y1="72" x2="440" y2="440" gradientUnits="userSpaceOnUse">
      <stop offset="0" stop-color="#052E2B" />
      <stop offset="0.44" stop-color="#0F766E" />
      <stop offset="1" stop-color="#F59E0B" />
    </linearGradient>
    <linearGradient id="runtimeCleanupCore" x1="160" y1="128" x2="360" y2="396" gradientUnits="userSpaceOnUse">
      <stop offset="0" stop-color="#CCFBF1" />
      <stop offset="0.52" stop-color="#5EEAD4" />
      <stop offset="1" stop-color="#FDE68A" />
    </linearGradient>
    <filter id="runtimeCleanupShadow" x="-20%" y="-20%" width="140%" height="140%">
      <feDropShadow dx="0" dy="18" stdDeviation="16" flood-color="#042F2E" flood-opacity="0.38" />
    </filter>
  </defs>
  <rect width="512" height="512" rx="112" fill="#082F2A" />
  <path d="M256 46 430 146v220L256 466 82 366V146Z" fill="url(#runtimeCleanupShell)" filter="url(#runtimeCleanupShadow)" />
  <path d="M256 86 394 166v176L256 422 118 342V166Z" fill="#0B3D39" stroke="#99F6E4" stroke-width="10" />
  <path d="M256 122c74 0 134 60 134 134s-60 134-134 134-134-60-134-134 60-134 134-134Zm0 38a96 96 0 1 0 0 192 96 96 0 0 0 0-192Z" fill="url(#runtimeCleanupCore)" />
  <path d="M168 257h176" stroke="#022C22" stroke-width="28" stroke-linecap="round" />
  <path d="M256 168v176" stroke="#022C22" stroke-width="28" stroke-linecap="round" />
  <path d="M201 201 311 311" stroke="#FBBF24" stroke-width="24" stroke-linecap="round" />
  <path d="M311 201 201 311" stroke="#FBBF24" stroke-width="24" stroke-linecap="round" />
  <path d="M336 114 390 145v62" fill="none" stroke="#FDE68A" stroke-width="16" stroke-linecap="round" stroke-linejoin="round" />
  <path d="M176 398 122 367v-62" fill="none" stroke="#5EEAD4" stroke-width="16" stroke-linecap="round" stroke-linejoin="round" />
</svg>
